<svg width="116" height="18" fill="none" xmlns="http://www.w3.org/2000/svg"><g clip-path="url(#a)"><path d="m9 0 2.1 6.5H18l-5.6 4 2.2 6.5L9 13l-5.6 4 2.2-6.5-5.6-4h6.9L9 0Z" fill="#83B3D3"/></g><path d="m59 0 2.1 6.5H68l-5.6 4 2.2 6.5-5.6-4-5.6 4 2.2-6.5-5.6-4h6.9L59 0ZM84 0l2.1 6.5H93l-5.6 4 2.2 6.5-5.6-4-5.6 4 2.2-6.5-5.6-4h6.9L84 0ZM107 0l2.1 6.5h6.9l-5.6 4 2.2 6.5-5.6-4-5.6 4 2.2-6.5-5.6-4h6.9L107 0ZM34 0l2.1 6.5H43l-5.6 4 2.2 6.5-5.6-4-5.6 4 2.2-6.5-5.6-4h6.9L34 0Z" fill="#83B3D3"/><defs><clipPath id="a"><path fill="#fff" transform="translate(0 1)" d="M0 0h18v17H0z"/></clipPath></defs></svg>